<?xml version="1.0" standalone="no"?>
<!DOCTYPE svg PUBLIC "-//W3C//DTD SVG 20010904//EN"
 "http://www.w3.org/TR/2001/REC-SVG-20010904/DTD/svg10.dtd">
<svg version="1.0" xmlns="http://www.w3.org/2000/svg"
 width="260.000000pt" height="260.000000pt" viewBox="0 0 260.000000 260.000000"
 preserveAspectRatio="xMidYMid meet">
<metadata>
Created by potrace 1.11, written by Peter Selinger 2001-2013
</metadata>
<g transform="translate(0.000000,260.000000) scale(0.100000,-0.100000)"
fill="#000000" stroke="none">
<path d="M0 1988 l0 -613 113 0 c90 0 126 -5 181 -23 78 -26 146 -59 146 -70
-1 -10 -38 -121 -45 -132 -4 -6 -24 0 -48 14 -70 41 -166 68 -238 68 -112 0
-109 6 -109 -194 0 -151 2 -172 17 -184 10 -8 78 -49 152 -91 222 -129 296
-214 308 -359 13 -161 -64 -315 -193 -383 l-39 -20 355 0 c344 0 354 1 315 17
-193 83 -317 227 -371 432 -19 70 -25 268 -11 351 36 222 182 423 371 513 116
56 127 58 271 60 132 1 184 -9 280 -57 69 -34 151 -95 147 -108 -3 -14 -83
-129 -89 -129 -2 0 -25 18 -51 39 -136 113 -315 141 -458 71 -199 -97 -316
-358 -279 -624 17 -127 98 -267 197 -341 169 -127 349 -120 575 21 47 30 87
53 88 52 1 -2 11 -36 22 -75 l21 -73 -70 -46 c-39 -26 -102 -60 -142 -75 l-71
-28 183 -1 c100 0 182 3 183 8 5 44 2 1168 -3 1199 -4 24 -10 67 -13 96 l-6
54 103 -1 103 0 5 -286 5 -285 305 0 305 0 1 205 c0 113 -5 230 -10 260 -20
101 -18 105 39 105 l50 1 3 622 2 622 -1300 0 -1300 0 0 -612z"/>
<path d="M0 382 c0 -207 2 -251 14 -255 8 -3 41 -5 73 -3 97 4 161 49 193 133
34 90 16 166 -55 235 -33 32 -167 118 -208 134 -16 6 -17 -14 -17 -244z"/>
<path d="M1903 338 c2 -156 7 -292 10 -303 3 -11 6 -23 6 -27 1 -5 135 -8 299
-8 l298 0 -1 307 0 308 -308 3 -309 2 5 -282z"/>
</g>
</svg>
