<svg xmlns="http://www.w3.org/2000/svg" width="50" height="42" viewBox="0 0 50 42">
    <g fill="#EE9828" fill-rule="nonzero">
        <ellipse cx="1.355" cy="11.661" rx="1.355" ry="2.543"/>
        <ellipse cx="1.355" cy="29.2" rx="1.355" ry="2.543"/>
        <ellipse cx="9.024" cy="19.8" rx="1.59" ry="2.992"/>
        <path d="M46.967 5.093L25.442 0a1.838 1.838 0 0 0-1.784 1.885v37.178a2.08 2.08 0 0 1-.517 1.342c-.353.32-.796.523-1.268.583a3.14 3.14 0 0 0 1.778.356c1.503-.248 4.2-.926 4.2-.926h-.033l18.94-4.475c2.013-.456 2.986-1.557 2.986-3.355V8.051c.014-1.737-.765-2.516-2.777-2.958zm-15.5 30.964c-1.033 0-1.871-1.577-1.871-3.516s.838-3.516 1.872-3.516c1.033 0 1.872 1.577 1.872 3.516 0 1.94-.84 3.516-1.872 3.516zm0-24.221c-1.033 0-1.871-1.577-1.871-3.516 0-1.94.838-3.516 1.872-3.516 1.033 0 1.872 1.577 1.872 3.516s-.84 3.516-1.872 3.516zm14.158 19.913c-.752 0-1.342-1.14-1.342-2.542 0-1.403.604-2.543 1.342-2.543.738 0 1.342 1.14 1.342 2.543 0 1.402-.584 2.542-1.342 2.542zm0-17.538c-.752 0-1.342-1.14-1.342-2.543 0-1.402.604-2.543 1.342-2.543.738 0 1.342 1.14 1.342 2.543 0 1.402-.584 2.536-1.342 2.536v.007z"/>
        <ellipse cx="18.136" cy="8.32" rx="1.865" ry="3.516"/>
        <ellipse cx="18.136" cy="32.541" rx="1.865" ry="3.516"/>
    </g>
</svg>
