<svg height="2000" viewBox="0 0 2000 2000" width="2000" xmlns="http://www.w3.org/2000/svg"><path d="m705.93 1787.42 170.94 172.14a137.68 137.68 0 0 0 194.93 0l171.86-172.14-269.32-269.77"/><path d="m1670.3 593.48-269.23 269.68-269.23-269.68 269.23-269.68z"/><path d="m1334.15 1699.52 625.48-626.52a138.24 138.24 0 0 0 0-195.26l-171.85-172.15-723 724.16"/><path d="m1315.65 948.66-721.82 723.03-269.23-269.69 721.82-723.02z"/><path d="m39.76 1119.53 171.85 172.14 270.54-269.77-269.32-269.78-171.83 172.15a138.25 138.25 0 0 0 -1.24 195.26z"/><path d="m1288.3 212.88-171.86-172.45a137.69 137.69 0 0 0 -194.93 0l-625.51 626.57 269.35 269.74z"/></svg>