<?xml version="1.0" encoding="utf-8"?>
<!-- Generator: Adobe Illustrator 22.0.1, SVG Export Plug-In . SVG Version: 6.00 Build 0)  -->
<svg version="1.1" id="Layer_1" xmlns="http://www.w3.org/2000/svg" xmlns:xlink="http://www.w3.org/1999/xlink" x="0px" y="0px"
	 viewBox="0 0 187.4 209.9" style="enable-background:new 0 0 187.4 209.9;" xml:space="preserve">
<style type="text/css">
	.st0{display:none;fill:#FFFFFF;}
	.st1{fill:#454E72;}
	.st2{fill:#24A9E2;}
</style>
<rect x="212.6" y="-405.3" class="st0" width="1022" height="475"/>
<g>
	<path class="st1" d="M119.8,70.7c0.1,10.6-4.2,19.1-10.2,26.9c-5.2,6.7-11.3,12.5-17.4,18.4c-17.5,17.3-29.5,37.9-37.4,61.1
		c-1.6,4.6-3,9.2-4,14c-0.5,2.2-0.9,2.4-2.6,0.8c-29.4-25.8-31.2-69.7-4.1-97.8c3.5-3.6,7.5-6.6,11-10.2c14.8-15,24.5-32.7,28-53.6
		c1.4-8.6,2-17.2,1.2-25.9c-0.1-0.7-0.4-1.6,0.4-2c0.8-0.4,1.4,0.4,1.9,0.8c7.7,6.8,14.1,14.8,19.5,23.5
		c7.6,12.4,11.7,25.8,13.5,40.2C119.8,68.3,119.7,69.7,119.8,70.7z"/>
	<path class="st2" d="M92.7,207.9c-7.3-0.1-14.5-1.5-21.7-3.3c-1-0.3-1.9-0.5-1.5-1.9c0.2-1.1,0.1-2.1,1.8-2.3
		c3.8-0.4,6.3-2.6,7.3-6.3c0.4-1.6,0.8-3.3,1-5c0.8-11.4,6.2-20.8,13-29.6c6.7-8.6,14.9-15.9,22.2-23.9c12.2-13.3,22.1-28,28.1-45.1
		c0.2-0.7,0.2-1.6,1.1-1.7c1-0.1,1.2,0.9,1.6,1.6c5.1,9.1,8.4,18.9,10.3,29.2c1.6,8.8,2.6,17.6,1.8,26.5
		c-1.7,19.8-10.1,36.2-26.2,48.2C120.1,203,107.2,207.8,92.7,207.9z"/>
</g>
</svg>
