<?xml version="1.0" encoding="utf-8"?>
<!-- Generator: Adobe Illustrator 22.0.1, SVG Export Plug-In . SVG Version: 6.00 Build 0)  -->
<svg version="1.1" id="Layer_1" xmlns="http://www.w3.org/2000/svg" xmlns:xlink="http://www.w3.org/1999/xlink" x="0px" y="0px"
	 viewBox="0 0 57 52" style="enable-background:new 0 0 57 52;" xml:space="preserve">
<style type="text/css">
	.st0{fill:#D7D1C7;}
	.st1{fill:#BFB5AF;}
	.st2{fill:#F47E33;}
	.st3{fill:#35312E;}
	.st4{fill:#D8A780;}
</style>
<title>icons 2</title>
<desc>Created with Sketch.</desc>
<g id="Page-1">
	<g id="icons-2">
		<g id="icons">
			<g id="Page-1-Copy">
				<g id="Group-9" transform="translate(0.000000, 1.000000)">
					<path id="Fill-1" class="st0" d="M52.8,27.6c0.1-0.9,0.1-1.7,0.1-2.6C53,11.2,41.8,0,28,0S3,11.2,3,25
						C3,25.1,52.4,26.3,52.8,27.6"/>
					<path id="Fill-3" class="st1" d="M2.9,25.1c0,13.8,11.2,25,25,25s23.5-8.5,25-21.8C52.9,28.1,2.9,24.2,2.9,25.1"/>
					<path id="Fill-5" class="st2" d="M18.3,6.5c2.8,0,5,2.2,5,5s-2.2,5-5,5s-5-2.2-5-5S15.6,6.5,18.3,6.5"/>
					<path id="Fill-7" class="st3" d="M18.3,7.6c-2.2,0-4,1.8-4,4s1.8,4,4,4s4-1.8,4-4S20.5,7.6,18.3,7.6 M18.3,17.6
						c-3.3,0-6-2.7-6-6s2.7-6,6-6s6,2.7,6,6S21.6,17.6,18.3,17.6"/>
					<path id="Fill-9" class="st2" d="M34.6,6.3c4.3,0,7.8,3.5,7.8,7.8S38.9,22,34.6,22s-7.8-3.5-7.8-7.8S30.2,6.3,34.6,6.3"/>
					<polyline id="Fill-11" class="st1" points="20.5,30.9 26.9,22.9 28.2,23.6 30.8,24.6 32.7,23.6 38.6,17.4 40.6,20.1 41.6,19.3 
						42.9,19.3 46.2,23.9 48.5,23.5 52.8,28.3 					"/>
					<polyline id="Fill-13" class="st1" points="24.7,26.9 21.3,25 16.3,26.3 14,18.7 9.9,18.7 5.9,25.7 3,25.8 					"/>
					<path id="Fill-15" class="st2" d="M13.3,28.4c0,0-1.9,5.5-1.9,5.6c0,0.5,0.8,0.9,1.9,0.9s1.9-0.4,1.9-0.9
						C15.2,33.8,13.3,28.4,13.3,28.4"/>
					<path id="Fill-17" class="st2" d="M9,26.2c0,0-1.8,5.4-1.8,5.5c0,0.5,0.8,0.9,1.8,0.9s1.8-0.4,1.8-0.9C10.9,31.7,9,26.2,9,26.2
						"/>
					<path id="Fill-19" class="st4" d="M42.9,26.8c0,2.1-10,2.1-10,0s2.2-3.8,5-3.8S42.9,24.7,42.9,26.8"/>
					<path id="Fill-21" class="st4" d="M47.9,32c0,2.1-10,2.1-10,0s2.2-3.8,5-3.8C45.7,28.2,47.9,29.9,47.9,32"/>
					<path id="Fill-23" class="st4" d="M37.9,38.2c0,2.1-10,2.1-10,0s2.2-3.8,5-3.8S37.9,36.1,37.9,38.2"/>
					<path id="Fill-25" class="st0" d="M28.3,48.9C18,48.9,9.1,42.5,5.6,33.4c0.7,0,1.4,0,2.2,0c0.4,0.1,0.8,0.2,1.2,0.2
						c0.4,0,0.7,0,1-0.1c0.2,0,0.3,0,0.5,0c-0.1,0.2-0.1,0.2-0.1,0.3c0,1.2,1.2,2,2.9,2c1.7,0,2.6-1,2.7-2.2c0.3,0,0.8,0.3,1.1,0.3
						c7,0.8,7.5,2,7.5,2.1c0,0.1-0.2,0.7-1.6,1.6c-3,2.1-4.1,3.3-3.8,4.6c0.3,1.6,2.4,2,5.4,2.5c0.9,0.2,1.8,0.4,2.9,0.6
						c1.1,0.3,2.3,0.5,3.4,0.7c2.1,0.4,4.2,0.8,5.9,1.4C34.2,48.4,31.3,48.9,28.3,48.9"/>
				</g>
				<path id="Fill-27" class="st3" d="M48.9,23.4l-2.2,0.4l-3.2-4.5h-1c0.7-1.2,1-2.7,1-4.1c0-4.9-4-8.9-8.9-8.9s-8.9,4-8.9,8.8
					c0,4.1,2.8,7.5,6.5,8.6L32,23.8l-1.3,0.6l-2.1-0.8l-2.1-1.2l-2.9,3.6l-2.3-1.3L17,26l-2.2-7.3H9.3l-4,7l-1.2,0
					C4.2,12.6,14.9,2.1,28,2.1c13.2,0,23.9,10.7,23.9,23.9v0.8L48.9,23.4z M36.8,39.1c-0.4,0.3-1.7,0.7-4,0.7s-3.6-0.4-4-0.7
					c0.1-1.5,1.9-2.7,4-2.7S36.7,37.6,36.8,39.1L36.8,39.1z M42.9,30.2c2.1,0,3.8,1.2,4,2.7c-0.4,0.3-1.7,0.7-4,0.7
					c-2.2,0-3.6-0.4-4-0.7C39,31.4,40.8,30.2,42.9,30.2L42.9,30.2z M41.8,27.7c-0.4,0.3-1.7,0.7-4,0.7c-2.2,0-3.6-0.4-4-0.7
					c0.1-1.5,1.9-2.7,4-2.7C40,25,41.7,26.2,41.8,27.7L41.8,27.7z M40.2,18.8l-1.6-2.1l-4.8,5.2c-3.4-0.4-6.1-3.2-6.1-6.8
					c0-3.7,3-6.8,6.8-6.8s6.8,3,6.8,6.8C41.4,16.5,40.9,17.8,40.2,18.8L40.2,18.8z M39.1,47.2c-1.9-1-4.9-1.5-8-2.2
					c-1.1-0.2-2.2-0.4-3.3-0.7c-1-0.2-2-0.4-2.9-0.6c-1.4-0.3-3.1-0.6-3.6-0.9c0.2-0.3,0.8-1,2.8-2.3c0.7-0.5,2.9-2,2.3-3.9
					c-0.5-1.8-3.4-2.9-9.2-3.5c-0.5-0.1-1.1-0.1-1.6-0.2c-0.3-0.9-0.7-2.1-1.3-3.8l-1-2.9l-1,2.9c-0.3,1-0.6,1.7-0.8,2.4
					c-0.3-0.8-0.7-2.2-1.5-4.5L9,24l-1,2.9c-1.4,4-1.7,5.1-1.8,5.6H5c-0.4-1.5-0.7-3.1-0.8-4.7l2.4-0.1l4-6.9h2.7l2.4,7.8l5.6-1.4
					l1.3,0.7l-2.7,3.4l1.6,1.3l5.8-7.3l0.7,0.4l3.1,1.1l1.4-0.7c-0.3,0.5-0.4,1.1-0.4,1.8s0.4,2,3.4,2.4c0.9,0.2,1.6,1,1.6,1.9v3.4
					c-0.4-0.3-0.9-0.5-1.4-0.7h0c-1.1-0.4-2.2-0.9-2.5-2c-0.3,0.9-1,1.4-1.9,1.8c-2.4,0.7-4.2,2.5-4.2,4.6c0,0.8,0.6,2.6,6,2.6
					c5.5,0,6-1.8,6-2.6v-4.1c0.4,0.1,0.8,0.2,1.3,0.3c0.9,0.2,1.6,1,1.6,1.9v2.3c0,0.5,0.4,1,0.9,1.1c0.6,0.1,1.1-0.4,1.1-1v-2.4
					c0-1,0.7-1.8,1.6-1.9c3-0.5,3.4-1.8,3.4-2.4c0-1.7-1.1-3.2-2.8-4.1h0c0,0-0.1,0-0.1,0c-0.3-0.2-0.6-0.3-0.9-0.4
					c-0.5-0.2-0.9-0.5-1.2-0.9c-0.1-1.8-1.5-3.4-3.5-4.2h0c-0.1-0.1-0.3-0.1-0.4-0.1c-1-0.4-1.8-0.9-2.1-1.9c-0.3,1.1-1.2,1.6-2.4,2
					c-0.1,0-0.2,0.1-0.3,0.1l3.2-3.5l2,2.6l1.6-1.2h0.4l3.4,4.7l2.4-0.4l3.5,4C50.5,37.2,45.7,43.7,39.1,47.2L39.1,47.2z M12.6,34.7
					c0.2-0.5,0.4-1.2,0.7-2.1c0.3,0.9,0.5,1.6,0.7,2.1c-0.2,0.1-0.4,0.1-0.7,0.1C13.1,34.8,12.8,34.8,12.6,34.7L12.6,34.7z
					 M8.3,32.5c0.2-0.5,0.4-1.2,0.7-2c0.3,0.8,0.5,1.6,0.7,2.1C9.2,32.6,8.8,32.5,8.3,32.5L8.3,32.5z M28,49.9
					c-10.2,0-18.9-6.4-22.3-15.3c0.7,0,1.4,0,2.1,0c0.4,0.1,0.8,0.2,1.2,0.2c0.3,0,0.7,0,1-0.1c0.2,0,0.3,0,0.5,0
					c-0.1,0.2-0.1,0.2-0.1,0.3c0,1.1,1.2,2,2.9,2c1.6,0,2.8-0.8,2.9-1.9c0.3,0,0.5,0.1,0.8,0.1c6.9,0.8,7.4,2,7.4,2.1
					c0,0.1-0.1,0.7-1.5,1.6c-2.9,2-4,3.2-3.7,4.5c0.3,1.5,2.3,1.9,5.4,2.5c0.9,0.2,1.8,0.3,2.8,0.6c1.1,0.2,2.3,0.5,3.4,0.7
					c2,0.4,4.1,0.8,5.8,1.3C33.8,49.4,31,49.9,28,49.9L28,49.9z M28,0C13.7,0,2,11.7,2,26s11.7,26,26,26s26-11.7,26-26S42.3,0,28,0
					L28,0z"/>
			</g>
		</g>
	</g>
</g>
</svg>
