<?xml version="1.0" encoding="utf-8"?>
<!-- Generator: Adobe Illustrator 22.0.1, SVG Export Plug-In . SVG Version: 6.00 Build 0)  -->
<svg version="1.1" id="Text" xmlns="http://www.w3.org/2000/svg" xmlns:xlink="http://www.w3.org/1999/xlink" x="0px" y="0px"
	 viewBox="0 0 78.7 81" style="enable-background:new 0 0 78.7 81;" xml:space="preserve">
<style type="text/css">
	.st0{fill:#545456;}
</style>
<path class="st0" d="M56,16.7c-6.6,0-12.5,3.1-16.4,7.9c-3.8-4.8-9.7-7.9-16.3-7.9c-11.4,0-21.1,9.5-21.1,20.8v25
	c0,2.4,2.3,4.6,4.7,4.6c2.5,0,4.5-2.1,4.5-4.6v-25c0.1-6.5,5.4-11.6,11.9-11.6c6.5,0,11.6,5.1,11.6,11.6c0,0,0,0,0,0v25
	c0,0,0,0.1,0,0.1c0.1,2.4,2.1,4.5,4.6,4.5c0,0,0,0,0.1,0c0,0,0,0,0.1,0c2.5,0,4.5-2.1,4.5-4.6v-25C44.2,31,49.4,25.9,56,25.9
	c6.5,0,11.6,5.1,11.6,11.6v25c0,2.5,2.1,4.6,4.6,4.6c2.4,0,4.6-2.1,4.6-4.6v-25C76.8,26,67.5,16.7,56,16.7z"/>
</svg>
