<?xml version="1.0" encoding="utf-8"?>
<!-- Generator: Adobe Illustrator 22.0.1, SVG Export Plug-In . SVG Version: 6.00 Build 0)  -->
<svg version="1.1" id="Layer_1" xmlns="http://www.w3.org/2000/svg" xmlns:xlink="http://www.w3.org/1999/xlink" x="0px" y="0px"
	 viewBox="0 0 96 96" style="enable-background:new 0 0 96 96;" xml:space="preserve">
<style type="text/css">
	.st0{fill:#6CBE45;}
	.st1{fill:#FFFFFF;}
	.st2{font-family:'AllerDisplay';}
	.st3{font-size:32.4675px;}
</style>
<path class="st0" d="M47.5,2.2L55.4,20c0.6,1.4,2.3,2,3.6,1.2l17.3-9.5c2.1-1.2,4.6,1,3.7,3.3l-7.2,17.8c-0.6,1.4,0.2,3.1,1.7,3.5
	l18.8,5.1c2.4,0.6,2.6,3.9,0.3,4.9l-18,7.6c-1.4,0.6-2,2.3-1.2,3.7L84,74.2c1.2,2.1-0.9,4.6-3.2,3.7l-18.4-7.1
	c-1.4-0.5-3,0.2-3.4,1.7l-5.4,18.7c-0.7,2.3-3.9,2.5-4.9,0.3l-7.9-17.8c-0.6-1.4-2.3-2-3.6-1.2l-17.3,9.5c-2.1,1.2-4.6-1-3.7-3.3
	l7.2-17.8c0.6-1.4-0.2-3.1-1.7-3.5L2.9,52.4c-2.4-0.6-2.6-3.9-0.3-4.9l18-7.6c1.4-0.6,2-2.3,1.2-3.7l-9.6-16.6
	c-1.2-2.1,0.9-4.6,3.2-3.7l18.4,7.1c1.4,0.5,3-0.2,3.4-1.7l5.4-18.7C43.3,0.2,46.5,0,47.5,2.2z"/>
<text transform="matrix(0.9401 -0.3408 0.3408 0.9401 20.184 70.849)" class="st1 st2 st3">NEW</text>
</svg>
