<?xml version="1.0" encoding="utf-8"?>
<!-- Generator: Adobe Illustrator 22.0.1, SVG Export Plug-In . SVG Version: 6.00 Build 0)  -->
<svg version="1.1" id="Layer_1" xmlns="http://www.w3.org/2000/svg" xmlns:xlink="http://www.w3.org/1999/xlink" x="0px" y="0px"
	 viewBox="0 0 30.3 26" style="enable-background:new 0 0 30.3 26;" xml:space="preserve">
<style type="text/css">
	.st0{fill:#3F1377;}
</style>
<g>
	<path class="st0" d="M14.6,8.3c2.6,0,4.8,1.1,6.4,2.9h7.5c-1-1.5-2.3-2.6-3.9-3.3c-1.6-0.7-2.9-1.9-3.8-3.4c0,0,0,0,0,0
		c-1.3-2.2-3.6-3.6-6.3-3.6c-2.7,0-5.1,1.5-6.3,3.7C7.3,6,5.9,7.2,4.3,7.9c0,0,0,0,0,0c-1.5,0.7-2.8,1.8-3.8,3.2h7.7
		C9.8,9.4,12.1,8.3,14.6,8.3"/>
	<polygon class="st0" points="6,25.1 23.1,25.1 23.1,21.2 6,21.2 	"/>
	<path class="st0" d="M10.2,20c0-0.1,0-0.1,0-0.2c0-2.4,2-4.4,4.4-4.4c2.5,0,4.4,2,4.4,4.4c0,0.1,0,0.1,0,0.2h4.1c0-0.1,0-0.1,0-0.2
		c0-4.7-3.8-8.5-8.6-8.5c-4.7,0-8.6,3.8-8.6,8.5C6,19.9,6,20,6,20H10.2z"/>
</g>
</svg>
