<?xml version="1.0" encoding="utf-8"?>
<!-- Generator: Adobe Illustrator 22.0.1, SVG Export Plug-In . SVG Version: 6.00 Build 0)  -->
<svg version="1.1" id="Layer_1" xmlns="http://www.w3.org/2000/svg" xmlns:xlink="http://www.w3.org/1999/xlink" x="0px" y="0px"
	 viewBox="0 0 57.7 51" style="enable-background:new 0 0 57.7 51;" xml:space="preserve">
<style type="text/css">
	.st0{fill:#049EE8;}
</style>
<path id="LOGO" class="st0" d="M54.1,43.6c-0.7,0-1.3,0.2-1.9,0.7L47,39.8l4-12.3c0,0,0.1,0,0.1,0c1.1,0,2-0.9,2-2c0-1.1-0.9-2-2-2
	c0,0-0.1,0-0.1,0l-3.5-10.8c0.9-0.6,1.2-1.9,0.6-2.8c-0.4-0.6-1-0.9-1.7-1c-0.5,0-0.9,0.2-1.3,0.5L36,2.8c0.4-1-0.1-2.2-1.1-2.6
	s-2.2,0.1-2.6,1.1c0,0.1-0.1,0.2-0.1,0.3H21c-0.3-1.1-1.4-1.7-2.4-1.5c-1.1,0.3-1.7,1.4-1.5,2.4c0,0.1,0.1,0.2,0.1,0.3L8,9.4
	C7.6,9.1,7.2,9,6.7,9c-1.1,0-2,0.9-2,2c0,0.7,0.4,1.3,1,1.7L2.2,23.4c0,0-0.1,0-0.1,0c-1.1,0-2,0.9-2,2c0,1.1,0.9,2,2,2
	c0,0,0.1,0,0.1,0l3.5,10.8c-0.9,0.6-1.2,1.9-0.6,2.8c0.4,0.6,1,0.9,1.7,1c0.5,0,0.9-0.2,1.3-0.5l9.2,6.6c-0.4,1,0.1,2.2,1.1,2.6
	c1,0.4,2.2-0.1,2.6-1.1c0-0.1,0.1-0.2,0.1-0.3h11.1c0.3,1.1,1.4,1.7,2.4,1.5c0.9-0.2,1.5-1,1.5-2c0-0.3-0.1-0.5-0.1-0.7l10.4-7.6
	l5.1,4.4c-0.8,1.4-0.4,3.2,1,4c1.4,0.8,3.2,0.4,4-1s0.4-3.2-1-4C55.1,43.8,54.6,43.6,54.1,43.6z M46.8,13.6L50,23.8
	c-0.4,0.3-0.8,0.7-0.9,1.2h-1.7c-0.2-0.7-0.7-1.3-1.4-1.5L46.8,13.6z M45.8,12.9l-0.7,10.5c0,0-0.1,0-0.1,0l-4.2-7.9
	c0.4-0.4,0.7-0.9,0.7-1.5c0-0.1,0-0.2,0-0.3l0.5-0.2l2.8-1.2C45.1,12.6,45.4,12.8,45.8,12.9L45.8,12.9z M34.5,23.5
	c-0.3-0.1-0.6,0-0.9,0L28,13.8c0.2-0.2,0.4-0.4,0.5-0.7l9,1.1c0.1,0.5,0.3,1,0.7,1.3L34.5,23.5z M39.1,16c0.1,0,0.3,0,0.4,0
	c0.2,0,0.3,0,0.5-0.1l4.2,8c-0.3,0.3-0.5,0.6-0.6,1H36c-0.1-0.4-0.3-0.8-0.6-1L39.1,16z M32.7,24c-0.3,0.3-0.5,0.6-0.5,1H21
	c-0.1-0.4-0.3-0.7-0.5-1l5.6-9.7c0.3,0.1,0.7,0.1,1,0L32.7,24z M19.6,23.6c-0.2-0.1-0.4-0.1-0.5-0.1c-0.1,0-0.3,0-0.4,0L15,15.6
	c0.4-0.3,0.7-0.8,0.7-1.3l9-1.2c0.1,0.3,0.3,0.5,0.5,0.7L19.6,23.6z M17.8,23.9c-0.3,0.3-0.6,0.6-0.7,1.1H9.7
	c-0.1-0.4-0.3-0.7-0.6-1l4.2-8c0.2,0,0.3,0.1,0.5,0.1c0.1,0,0.3,0,0.4,0L17.8,23.9z M9.7,26h7.4c0.1,0.4,0.3,0.8,0.7,1.1L14.1,35
	c-0.1,0-0.3,0-0.4,0c-0.2,0-0.3,0-0.5,0.1l-4.2-8C9.4,26.7,9.6,26.4,9.7,26z M18.7,27.5c0.1,0,0.3,0,0.4,0c0.2,0,0.4,0,0.5-0.1
	l5.6,9.7c-0.2,0.2-0.4,0.5-0.5,0.7l-9-1.1c-0.1-0.5-0.3-1-0.7-1.3L18.7,27.5z M20.5,27c0.3-0.3,0.5-0.6,0.5-1h11.1
	c0.1,0.4,0.3,0.7,0.5,1l-5.6,9.7c-0.4-0.1-0.7-0.1-1.1,0L20.5,27z M33.5,27.5c0.2,0.1,0.4,0.1,0.5,0.1c0.1,0,0.3,0,0.4,0l3.7,7.9
	c-0.4,0.3-0.7,0.8-0.7,1.3l-9,1.1c-0.1-0.3-0.3-0.5-0.5-0.7L33.5,27.5z M35.4,27.1c0.3-0.3,0.6-0.6,0.7-1.1h7.5
	c0.1,0.4,0.3,0.7,0.6,1l-4.2,8c-0.2,0-0.3-0.1-0.5-0.1c-0.1,0-0.3,0-0.4,0L35.4,27.1z M35.4,3.6l9.2,6.7c-0.1,0.2-0.1,0.5-0.1,0.8
	c0,0.1,0,0.2,0,0.3l-3.4,1.5c-0.4-0.6-1.2-0.9-1.9-0.8l-3.6-8L35.4,3.6C35.4,3.6,35.4,3.6,35.4,3.6L35.4,3.6z M33.3,3.9
	c0.2,0.1,0.5,0.1,0.8,0.1c0.1,0,0.2,0,0.4,0L35,5.2l3.2,7.2c-0.3,0.2-0.5,0.5-0.6,0.8l-9-1.2c0-0.4-0.2-0.7-0.4-1L33.3,3.9z M21,2.5
	h11.1c0.1,0.3,0.2,0.6,0.4,0.8l-5.2,7.1c-0.5-0.2-1-0.2-1.5,0l-5.2-7.2C20.8,3.1,20.9,2.8,21,2.5L21,2.5z M19.1,4.1
	c0.3,0,0.5-0.1,0.8-0.1l5.2,7.2c-0.2,0.3-0.4,0.6-0.4,1l-9,1.2c-0.1-0.3-0.3-0.6-0.6-0.8L18.7,4C18.8,4.1,18.9,4.1,19.1,4.1
	L19.1,4.1z M17.8,3.6L17.8,3.6L14,12c-0.1,0-0.2,0-0.4,0c-0.6,0-1.2,0.3-1.6,0.8l-3.4-1.5c0-0.1,0-0.2,0-0.3c0-0.3-0.1-0.5-0.1-0.8
	L17.8,3.6z M8.3,12.2l3.4,1.5c0,0.1,0,0.2,0,0.3c0,0.6,0.2,1.1,0.7,1.5l-4.2,8c0,0-0.1,0-0.1,0L7.3,12.9C7.7,12.8,8.1,12.6,8.3,12.2
	L8.3,12.2z M6.4,37.4L3.1,27.2C3.5,26.9,3.8,26.5,4,26h1.8c0.2,0.7,0.7,1.2,1.3,1.4L6.4,37.4z M5.8,25H4c-0.1-0.5-0.4-1-0.9-1.3
	l3.3-10.2l0.7,10C6.4,23.8,5.9,24.3,5.8,25L5.8,25z M7.3,38.1l0.7-10.6c0,0,0.1,0,0.1,0l3.9,7.5l0.3,0.5c-0.4,0.4-0.7,0.9-0.7,1.5
	c0,0.1,0,0.2,0,0.3l-3.4,1.5C8.1,38.4,7.7,38.2,7.3,38.1L7.3,38.1z M17.8,47.4l-9.2-6.6c0.1-0.2,0.2-0.5,0.2-0.8c0-0.1,0-0.2,0-0.3
	l3.4-1.5c0.4,0.6,1.2,0.9,1.9,0.8L17.8,47.4L17.8,47.4z M19.8,47.1c-0.2-0.1-0.5-0.1-0.8-0.1c-0.1,0-0.2,0-0.4,0l-0.8-1.8l-3-6.6
	c0.3-0.2,0.5-0.5,0.6-0.9l2.2,0.3l6.8,0.9c0,0.4,0.2,0.7,0.5,1l-0.9,1.2L19.8,47.1z M32.1,48.5H21c-0.1-0.3-0.2-0.6-0.4-0.8l5.2-7.2
	c0.5,0.2,1,0.2,1.5,0l5.2,7.2C32.3,47.9,32.2,48.2,32.1,48.5L32.1,48.5z M34.4,47c-0.1,0-0.2,0-0.4,0c-0.3,0-0.5,0.1-0.8,0.1l-2.1-3
	l-3.1-4.3c0.2-0.3,0.4-0.7,0.5-1l6.9-0.9l2.1-0.3c0.1,0.3,0.3,0.6,0.6,0.8l-3.6,8.2L34.4,47z M35.4,47.4L35.4,47.4l0.1-0.3l3.6-8.1
	c0.1,0,0.2,0,0.4,0c0.6,0,1.2-0.3,1.6-0.8l4.4,1.9L35.4,47.4z M41.5,37.3c0-0.1,0-0.2,0-0.3c0-0.6-0.2-1.1-0.7-1.5l2.3-4.4l1.9-3.6
	l0.1,0l0.8,11.8L41.5,37.3z M46.1,27.4c0.6-0.2,1.1-0.7,1.3-1.4h1.7c0.1,0.5,0.4,0.9,0.9,1.2l-3.3,10.2L46.1,27.4z"/>
</svg>
