<?xml version="1.0" encoding="utf-8"?>
<!-- Generator: Adobe Illustrator 22.0.1, SVG Export Plug-In . SVG Version: 6.00 Build 0)  -->
<svg version="1.1" id="Layer_1" xmlns="http://www.w3.org/2000/svg" xmlns:xlink="http://www.w3.org/1999/xlink" x="0px" y="0px"
	 viewBox="0 0 54.3 55" style="enable-background:new 0 0 54.3 55;" xml:space="preserve">
<style type="text/css">
	.st0{fill:#1CA3C2;}
</style>
<g id="Layer_1_1_">
</g>
<g id="Layer_2_1_">
	<g>
		<g>
			<path class="st0" d="M51.6,25.2L41.4,7.3C40.5,5.9,39,5,37.3,5H16.9c-1.7,0-3.2,0.9-4,2.3L2.6,25.2c-0.8,1.5-0.8,3.2,0,4.7
				l10.2,17.8c0.8,1.5,2.4,2.3,4,2.3h20.4c1.7,0,3.2-0.9,4-2.3l10.2-17.8C52.4,28.4,52.4,26.6,51.6,25.2z M45,29.8l-6.8,11.9
				c0.2,0.3,0.2,0.7,0.2,1c0,1.4-1.1,2.6-2.5,2.6c-0.8,0-1.6-0.4-2.1-1.1H20.5c-0.5,0.7-1.2,1.1-2.1,1.1c-1.4,0-2.5-1.1-2.5-2.6
				c0-0.3,0.1-0.7,0.2-1l-6.9-12C8,29.7,7,28.6,7,27.3c0-1.4,1.1-2.5,2.4-2.6l6.7-11.6c-0.1-0.3-0.2-0.6-0.2-0.9
				c0-1.4,1.1-2.6,2.5-2.6c0.8,0,1.5,0.4,2,1h13.4c0.5-0.6,1.2-1,2-1c1.4,0,2.5,1.2,2.5,2.6c0,0.3-0.1,0.7-0.2,1l6.6,11.5
				c1.3,0.1,2.3,1.2,2.3,2.5C47.2,28.6,46.3,29.6,45,29.8z"/>
			<path class="st0" d="M42.8,25.5L38.5,18l-16,9c0,0,0,0,0,0c0,1.4-1.1,2.6-2.5,2.6c-1.4,0-2.5-1.1-2.5-2.6c0-1.4,1.1-2.6,2.5-2.6
				c0.6,0,1.1,0.2,1.6,0.6l15.9-9l-0.8-1.5c-0.2,0.1-0.5,0.1-0.7,0.1c-1.2,0-2.2-0.8-2.5-2H20.9c-0.3,1.1-1.3,2-2.5,2
				c-0.3,0-0.5,0-0.8-0.1l-6.3,10.9c0.4,0.5,0.7,1.1,0.7,1.7c0,0.7-0.3,1.4-0.8,1.8l4.8,8.3l16.4-9.5c0-0.1,0-0.1,0-0.2
				c0-1.4,1.1-2.6,2.5-2.6c1.4,0,2.5,1.1,2.5,2.6c0,1.4-1.1,2.6-2.5,2.6c-0.5,0-1-0.2-1.5-0.5l-16.4,9.5l0.6,1
				c0.2-0.1,0.5-0.1,0.7-0.1c1.2,0,2.1,0.8,2.4,1.9h12.6c0.4-1.3,1.7-2.2,3.1-1.8l6.4-11.1c-0.5-0.5-0.8-1.2-0.8-1.9
				C42.1,26.6,42.3,26,42.8,25.5z"/>
		</g>
	</g>
</g>
</svg>
