<?xml version="1.0" encoding="utf-8"?>
<!-- Generator: Adobe Illustrator 22.0.1, SVG Export Plug-In . SVG Version: 6.00 Build 0)  -->
<svg version="1.1" id="Layer_1" xmlns="http://www.w3.org/2000/svg" xmlns:xlink="http://www.w3.org/1999/xlink" x="0px" y="0px"
	 viewBox="0 0 60.1 43" style="enable-background:new 0 0 60.1 43;" xml:space="preserve">
<style type="text/css">
	.st0{fill:#ED9D2F;}
</style>
<title>Logo</title>
<desc>Created with Sketch.</desc>
<g id="Homepage" transform="translate(-100.000000, -32.000000)">
	<g id="Intro">
		<g id="Header" transform="translate(100.000000, 32.000000)">
			<g id="Logo">
				<g id="Icon">
					<polyline id="Fill-1" points="11,9.8 30.1,0 49.3,9.8 45.5,12 30.1,4.1 14.7,12 11,9.8 					"/>
					<path id="Fill-2" class="st0" d="M30.2,5.7l-14.3,7.1l9.7,4.6c0,0,2.3,1,4.6,1c2.2,0,4.6-1,4.6-1l9.2-4.6L30.2,5.7"/>
					<path id="Fill-3" class="st0" d="M31.8,36.9l12.6-6.5V15.8l-6.8,3.9c0,0-5.8,2.8-5.8,11.5V36.9"/>
					<polyline id="Fill-4" class="st0" points="58.5,13.9 58.5,18 50.9,21.9 50.9,17.8 58.5,13.9 					"/>
					<path id="Fill-5" class="st0" d="M22.7,19.7l-6.8-3.9v14.6l12.6,6.5v-5.7C28.5,22.5,22.7,19.7,22.7,19.7"/>
					<polyline id="Fill-6" points="14.6,19.2 14.6,15.2 0.4,7.9 0.4,12 10.9,17.3 10.9,33.8 28.5,42.7 28.5,38.7 14.6,31.6 
						14.6,19.2 					"/>
					<polyline id="Fill-7" class="st0" points="1.8,18 9.4,21.9 9.4,17.8 1.8,13.9 1.8,18 					"/>
					<polyline id="Fill-8" points="49.4,13.3 45.7,15.2 45.7,31.6 31.8,38.7 31.8,42.7 49.4,33.8 49.4,17.3 59.9,12 59.9,7.9 
						49.4,13.3 					"/>
				</g>
			</g>
		</g>
	</g>
</g>
</svg>
