<?xml version="1.0" encoding="utf-8"?>
<!-- Generator: Adobe Illustrator 22.0.1, SVG Export Plug-In . SVG Version: 6.00 Build 0)  -->
<svg version="1.1" id="Layer_1" xmlns="http://www.w3.org/2000/svg" xmlns:xlink="http://www.w3.org/1999/xlink" x="0px" y="0px"
	 viewBox="0 0 1417.3 1417.3" style="enable-background:new 0 0 1417.3 1417.3;" xml:space="preserve">
<style type="text/css">
	.st0{fill:#FFFFFF;}
</style>
<g>
	<g>
		<path class="st0" d="M17,879.6h201.2v43.5H77.6v123.5h123l-11.8,43.5H77.6v132.4l5.9,44.1H24.6v-333L17,879.6z"/>
		<path class="st0" d="M534.5,933.7l-7.6-54.1h57.1v232.4c0,95.3-62.4,162.4-158.8,162.4c-138.8,0-142.4-137.7-142.4-147.1V933.7
			l-7.6-54.1h60.6v243c0,62.4,42.4,108.8,100,108.8c58.2,0,98.8-50.6,98.8-113V933.7z"/>
		<path class="st0" d="M1003.8,1222.6l3.5,44.1h-27.7L759,1019.6l-25.3-38.2v241.2l5.9,44.1h-54.1v-333l-7.6-54.1h35.9l215.9,244.7
			l25.9,38.2V933.7l-7.7-54.1h55.9V1222.6z"/>
		<path class="st0" d="M1406.5,1070.8c0,110-70,195.9-179.4,195.9h-121.2v-333l-7.7-54.1h146.5
			C1326.5,879.6,1406.5,939.6,1406.5,1070.8z M1158.8,921.9v302.4h75.3c67.1,0,115.3-68.3,115.3-150c0-83-48.2-152.4-115.3-152.4
			H1158.8z"/>
	</g>
	<g>
		<path class="st0" d="M340.5,763.3c0-47-52.4-70.9-103.5-99.5v171.4c9.3,2.3,19,3.7,29.2,3.7C305.8,839,340.5,811.9,340.5,763.3z"
			/>
		<polygon class="st0" points="1087.4,671.3 879.6,671.3 879.6,827.5 886.6,879.6 1087.4,879.6 		"/>
		<path class="st0" d="M275.3,414.7c54.8,0,93.8,19.4,114.6,32.6l-18,50.7c-1.4-3.4-45.8-34-98.6-34c-12.5,0-25.2,3.3-36.1,9.6V585
			c55.1,46.3,165.4,67.1,165.4,169.2c0,59.5-30.8,106.2-82.6,125.3h245.4c-82.4-24.6-149.9-99.1-149.9-218.8
			c0-142.3,98.6-246.5,220.8-246.5c57.6,0,104.9,19.4,145.8,56.9L750,518.5c-32.6-34-70.8-52.8-116.7-52.8
			c-89.6,0-151.4,91.7-151.4,188.2c0,111.8,78.4,181.2,156.2,181.2c63.2,0,134.7-58.4,134.7-58.4l15.3,51.4c0,0-38.1,34.5-97.6,51.4
			h126.5v-393l-9-63.9h71.5v193h207.7V486.5l-9-63.9h37.3V1H237v418.8C249,416.5,261.8,414.7,275.3,414.7z"/>
	</g>
</g>
</svg>
