<?xml version="1.0" encoding="utf-8"?>
<!-- Generator: Adobe Illustrator 22.0.1, SVG Export Plug-In . SVG Version: 6.00 Build 0)  -->
<svg version="1.1" id="Layer_1" xmlns="http://www.w3.org/2000/svg" xmlns:xlink="http://www.w3.org/1999/xlink" x="0px" y="0px"
	 viewBox="0 0 527.7 428.6" style="enable-background:new 0 0 527.7 428.6;" xml:space="preserve">
<style type="text/css">
	.st0{fill:#ED2024;}
</style>
<g>
	<path class="st0" d="M195.3,375c6.3,0,10.5-2.2,12.9-6.9c2.1-3.9,2.1-8,2.1-8.1v-25.8h-30v25.9c0,0,0.1,4.1,2.1,8
		C184.9,372.8,189.1,375,195.3,375z"/>
	<path class="st0" d="M198.1,238.8c0-7.5-10-7.5-10-7.5H180l9.3,14.9C192,245.9,198.1,244.6,198.1,238.8z"/>
	<polygon class="st0" points="243.6,368.6 258.2,368.6 250.9,347.7 	"/>
	<path class="st0" d="M129.1,152.2c6.9,0,12.3-5.5,12.3-12.3c0-6.9-5.5-12.3-12.3-12.3c-6.9,0-12.3,5.5-12.3,12.3
		C116.8,146.7,122.3,152.2,129.1,152.2z"/>
	<path class="st0" d="M128,333.3c-3.1,0-6,0.7-8.7,2l26.3,29.1c1.5-2.8,2.4-6.9,2.4-10.4C148.1,342.9,139.1,333.3,128,333.3z"/>
	<path class="st0" d="M107.9,354c0,12.4,9,20.9,20.1,20.9c3.9,0,7.7-1.2,10.8-3.2l-27.2-29.9C109.3,345.1,107.9,349.7,107.9,354z"/>
	<path class="st0" d="M291.7,333.9v40.5c0,0,24.9,3.4,24.9-20.2C316.6,330.2,291.7,333.9,291.7,333.9z"/>
	<path class="st0" d="M357.4,238.8c0-7.5-10-7.5-10-7.5h-8.1l9.3,14.9C351.3,246,357.4,244.7,357.4,238.8z"/>
	<path class="st0" d="M-0.4-0.3v430.5h528.1V-0.3H-0.4z M285.2,117.6c8.3,0,15.8,3.3,21.2,8.8l-7,7c-3.6-3.6-8.7-5.8-14.1-5.8
		c-11.1,0-20,7.7-20,20.8c0,14.7,8.9,20.8,20,20.8c6,0,11.3-2.6,15-6.8v-8.7h-10v-9.5h20.1v34.4h-8.7L301,173
		c-4.9,4.5-9.9,6.3-17.1,6.3c-16.1,0-28.7-11.2-28.7-30.9C255.2,130.6,268.6,117.6,285.2,117.6z M223,169.3h7v-41.7h-6.7v-9.2h23.4
		v9.2h-6.7v41.7h7v9.2H223V169.3z M218.2,221.3h10v24.9h24.9v-24.9h10v60h-10v-25h-24.9v25h-10V221.3z M136.1,106.8
		c0-3,2.4-5.4,5.4-5.4s5.4,2.4,5.4,5.4v0c0,3-2.4,5.4-5.4,5.4S136.1,109.7,136.1,106.8L136.1,106.8z M111.4,106.8
		c0-3,2.4-5.4,5.4-5.4s5.4,2.4,5.4,5.4v0c0,3-2.4,5.4-5.4,5.4S111.4,109.7,111.4,106.8L111.4,106.8z M129.1,117.6
		c12.3,0,22.3,10,22.3,22.3c0,12.3-10,22.3-22.3,22.3s-22.3-10-22.3-22.3C106.8,127.6,116.9,117.6,129.1,117.6z M148.7,168.5v9.9
		h-39.6v-9.9H148.7z M53.3,118.5h10v30.3L88,118.5h12.5L75.7,149l24.9,29.5H87.5L69,155.6l-5.7,6.3v16.5h-10V118.5z M81.4,220.5
		c8.3,0,15.8,3.3,21.2,8.8l-7,7c-3.6-3.6-8.7-5.8-14.1-5.8c-12.3,0-19.9,8.7-19.9,20.8c0,12.9,8.8,20.8,19.9,20.8
		c5.5,0,10.5-2.2,14.1-5.8l7,7.1c-5.4,5.4-12.9,8.7-21.2,8.7c-16.5,0-30.1-12-30.1-30.9C51.3,233.2,63.8,220.5,81.4,220.5z M70,385
		c-10.4-0.3-18.6-6.3-18.8-17.5h10c0.2,5,4.3,7.5,8.7,7.5c4.6,0,8.7-3,8.7-7.7c0-5.1-4.7-8.1-8.7-8.3c-0.5,0-4.6,0-9-2
		c-6.3-2.9-9.8-8.2-9.8-15.3c0-11.4,9.1-18.3,18.8-18.3c10.4,0,18.3,7,18.5,17.2h-9.9c-0.2-5-4-7.2-8.6-7.2c-4.7,0-8.7,2.7-8.7,8.3
		c0,5,4.3,7.6,8.7,7.6c0.4,0,4.6,0,8.9,2c6.3,2.9,9.8,8.9,9.8,16C88.7,378.8,79.7,385,70,385z M151.9,385.5l-6.2-6.4
		c-5,3.7-11.1,5.8-17.7,5.8c-16.6,0-30.1-13.3-30.1-30.9c0-16.6,12.4-30.7,30.1-30.7c17.7,0,30.2,14.1,30.2,30.7
		c0,6.4-2,13-5.4,17.9l6.4,6.8L151.9,385.5z M138.6,252.9v28.4h-10v-28.4l-22.5-31.6h12.3l15.3,21.4l15.3-21.4h12.3L138.6,252.9z
		 M163.4,118.5h10.1l29.9,42.7v-42.7h9.9v60h-10.1l-29.8-42.7v42.7h-10V118.5z M168.1,246.3h9.5l-9.5-15v-10h20c0,0,20,0,20,17.5
		s-20,17.5-20,17.5h-9.9v25h-10V246.3z M220.2,360.1c0,0.6-0.1,6.3-3,12.2c-4.1,8.2-11.9,12.8-21.9,12.8c-10,0-17.8-4.5-21.9-12.8
		c-2.9-5.8-3-11.6-3-12.2v-35.9h49.9V360.1z M264.1,384.2l-2.7-6.9h-21.1l-2.6,6.9H227l23.9-61.7l24,61.7H264.1z M276.9,221.3h40v10
		h-30v15h24.9v9.9h-24.9v15h30v10h-40V221.3z M291.7,384.2h-10v-60h10c14.6,0,35.1,3.3,35.1,30C326.8,379.8,306.6,384.2,291.7,384.2
		z M358.7,281.3l-15.6-25h-5.7v25h-10v-35h9.5l-9.5-15v-10h20c0,0,20.1,0,20.1,17.5c0,10.6-7.4,14.8-13.2,16.5l16.3,26.1H358.7z"/>
</g>
</svg>
