<?xml version="1.0" encoding="utf-8"?>
<!-- Generator: Adobe Illustrator 22.1.0, SVG Export Plug-In . SVG Version: 6.00 Build 0)  -->
<svg version="1.1" id="Layer_1" xmlns="http://www.w3.org/2000/svg" xmlns:xlink="http://www.w3.org/1999/xlink" x="0px" y="0px"
	 viewBox="0 0 110.6 47.7" style="enable-background:new 0 0 110.6 47.7;" xml:space="preserve">
<style type="text/css">
	.st0{fill:#671811;}
	.st1{fill:#FFFFFF;}
</style>
<g>
	<path class="st0" d="M52.7,30.8h9v1.8h-6.8v5.5h6.3v1.8h-6.3v7.5h-2.1V30.8H52.7z"/>
	<path class="st0" d="M66.9,30.8v9.9c0,3.7,1.7,5.3,3.9,5.3c2.5,0,4-1.6,4-5.3v-9.9H77v9.7c0,5.1-2.7,7.2-6.3,7.2c-3.4,0-6-2-6-7.1
		v-9.8H66.9z"/>
	<path class="st0" d="M80.8,47.5V30.8h2.3l5.3,8.4c1.2,2,2.2,3.7,3,5.4l0,0c-0.2-2.2-0.2-4.2-0.2-6.8v-7h2v16.6h-2.1L85.8,39
		c-1.2-1.9-2.3-3.8-3.1-5.6h-0.1c0.1,2.1,0.2,4.1,0.2,6.9v7.1h-2V47.5z"/>
	<path class="st0" d="M97,31c1.3-0.2,2.9-0.3,4.6-0.3c3.1,0,5.3,0.7,6.7,2.1c1.5,1.4,2.3,3.3,2.3,6s-0.8,4.9-2.4,6.5
		c-1.6,1.6-4.1,2.4-7.4,2.4c-1.5,0-2.8-0.1-3.9-0.2L97,31L97,31z M99.1,45.8c0.5,0.1,1.3,0.1,2.2,0.1c4.6,0,7.1-2.6,7.1-7.1
		c0-3.9-2.2-6.4-6.7-6.4c-1.1,0-2,0.1-2.5,0.2L99.1,45.8L99.1,45.8z"/>
</g>
<path class="st0" d="M47.9,47.9V0H0v47.9"/>
<g>
	<g>
		<path class="st1" d="M5.6,34.5c0-1.5,1.3-2.4,2.5-2.4c2,0,3.7,1.2,3.7,1.3l0.7-1.9c-0.8-0.5-2.3-1.2-4.3-1.2c-3,0-5.1,2.2-5.1,4.9
			c0,4.7,7.5,4.8,7.5,8.3c0,1.8-1.3,2.9-2.8,2.9c-2.6,0-4.5-2.3-4.5-2.3s-0.2,2.2-0.3,2.3c0,0,0.9,1,2.5,1.6c0,0,0,0,0,0l4.2,0
			c0,0,0,0,0,0c2-0.7,3.2-2.5,3.2-4.8C13,37.9,5.6,38.3,5.6,34.5z M22.6,46.2c-2.9,0-5.9-2.6-5.9-6.9c0-3.7,2.3-7.1,5.7-7.1
			c1.7,0,3.2,0.7,4.4,2l1.2-1.8c-1.6-1.4-3.3-2.2-5.5-2.2c-4.6,0-8.4,3.9-8.4,9.3c0,4.5,2.5,7.3,5.6,8.3c0,0,0,0,0,0h5c0,0,0,0,0,0
			c2.3-0.6,3.6-1.9,3.6-1.9L27.7,44C27.7,44,25,46.2,22.6,46.2z M44.8,47.9l-0.4-2V30.6h-2.7L42,33v4.9h-9.3v-7.3H30l0.3,2.4v14.9
			h2.8l-0.4-2V40H42v7.9H44.8z"/>
	</g>
</g>
</svg>
