<?xml version="1.0" encoding="utf-8"?>
<!-- Generator: Adobe Illustrator 22.0.1, SVG Export Plug-In . SVG Version: 6.00 Build 0)  -->
<svg version="1.1" id="Layer_1" xmlns="http://www.w3.org/2000/svg" xmlns:xlink="http://www.w3.org/1999/xlink" x="0px" y="0px"
	 viewBox="0 0 142 48.3" style="enable-background:new 0 0 142 48.3;" xml:space="preserve">
<g>
	<path d="M52.9,23h12.9v2.8h-9v7.9h7.9l-0.8,2.8h-7.1V45l0.4,2.8h-3.8V26.5L52.9,23z"/>
	<path d="M86.1,26.5L85.6,23h3.7v14.9c0,6.1-4,10.4-10.2,10.4c-8.9,0-9.1-8.8-9.1-9.4V26.5L69.4,23h3.9v15.6c0,4,2.7,7,6.4,7
		c3.7,0,6.3-3.2,6.3-7.2V26.5z"/>
	<path d="M116.2,45l0.2,2.8h-1.8L100.5,32l-1.6-2.5V45l0.4,2.8h-3.5V26.5L95.3,23h2.3l13.9,15.7l1.7,2.5V26.5l-0.5-3.5h3.6V45z"/>
	<path d="M142,35.3c0,7.1-4.5,12.6-11.5,12.6h-7.8V26.5l-0.5-3.5h9.4C136.9,23,142,26.8,142,35.3z M126.1,25.7v19.4h4.8
		c4.3,0,7.4-4.4,7.4-9.6c0-5.3-3.1-9.8-7.4-9.8H126.1z"/>
</g>
<g>
	<path d="M5.6,41.5c0-2.6-2.9-3.9-5.6-5.4v9.3c0.5,0.1,1,0.2,1.6,0.2C3.7,45.7,5.6,44.2,5.6,41.5z"/>
	<polygon points="46.3,36.5 35,36.5 35,45 35.4,47.9 46.3,47.9 	"/>
	<path d="M2.1,22.5c3,0,5.1,1.1,6.2,1.8l-1,2.8c-0.1-0.2-2.5-1.9-5.4-1.9c-0.7,0-1.4,0.2-2,0.5v6.1c3,2.5,9,3.7,9,9.2
		c0,3.2-1.7,5.8-4.5,6.8h13.4c-4.5-1.3-8.2-5.4-8.2-11.9c0-7.8,5.4-13.4,12-13.4c3.1,0,5.7,1.1,7.9,3.1L28,28.2
		c-1.8-1.9-3.9-2.9-6.4-2.9c-4.9,0-8.2,5-8.2,10.3c0,6.1,4.3,9.9,8.5,9.9c3.4,0,7.3-3.2,7.3-3.2l0.8,2.8c0,0-2.1,1.9-5.3,2.8h6.9
		V26.5L31.1,23H35v10.5h11.3v-7L45.8,23h2V0H0v22.8C0.7,22.6,1.3,22.5,2.1,22.5z"/>
</g>
</svg>
