<?xml version="1.0" encoding="utf-8"?>
<!-- Generator: Adobe Illustrator 22.0.1, SVG Export Plug-In . SVG Version: 6.00 Build 0)  -->
<svg version="1.1" id="Layer_1" xmlns="http://www.w3.org/2000/svg" xmlns:xlink="http://www.w3.org/1999/xlink" x="0px" y="0px"
	 viewBox="0 0 477.3 477.6" style="enable-background:new 0 0 477.3 477.6;" xml:space="preserve">
<g>
	<path d="M56.3,414.5c0-25.6-28.5-38.5-56.3-54.1v93.2c5,1.2,10.3,2,15.9,2C37.4,455.6,56.3,440.9,56.3,414.5z"/>
	<polygon points="462.4,364.5 349.4,364.5 349.4,449.4 353.2,477.7 462.4,477.7 	"/>
	<path d="M20.8,224.9c29.8,0,51,10.5,62.3,17.7l-9.8,27.5c-0.7-1.9-24.9-18.5-53.6-18.5c-6.8,0-13.7,1.8-19.7,5.2v60.6
		c29.9,25.2,89.9,36.5,89.9,92c0,32.4-16.8,57.7-44.9,68.1h133.5C133.7,464.1,97,423.6,97,358.6c0-77.4,53.6-134,120.1-134
		c31.3,0,57,10.5,79.3,31L279,281.3c-17.7-18.5-38.5-28.7-63.4-28.7c-48.7,0-82.3,49.9-82.3,102.4c0,60.8,42.6,98.5,85,98.5
		c34.4,0,73.3-31.7,73.3-31.7l8.3,27.9c0,0-20.7,18.8-53.1,27.9h68.8V264l-4.9-34.7h38.9v105h113V264l-4.9-34.7H478V0H0v227.7
		C6.5,226,13.5,224.9,20.8,224.9z"/>
</g>
</svg>
