<?xml version="1.0" encoding="utf-8"?>
<!-- Generator: Adobe Illustrator 22.0.1, SVG Export Plug-In . SVG Version: 6.00 Build 0)  -->
<svg version="1.1" id="Layer_1" xmlns="http://www.w3.org/2000/svg" xmlns:xlink="http://www.w3.org/1999/xlink" x="0px" y="0px"
	 viewBox="0 0 1417.3 1417.3" style="enable-background:new 0 0 1417.3 1417.3;" xml:space="preserve">
<style type="text/css">
	.st0{fill:#231F57;}
	.st1{fill:#FFFFFF;}
	.st2{fill:#FFFFFF;stroke:#000000;stroke-width:0.25;stroke-miterlimit:10;}
</style>
<path class="st0" d="M2.3,0l36.6,185v1153.1H1415l-38-181.8V0H2.3z"/>
<g>
	<path class="st1" d="M393,659.2l-96.4-170.8l-35.5-47.9h80l80,141.1l10.3,20.9l8.9-20.9l81.3-141.1h64.2L458,653.8l131.2,230.9
		h-73.1l-84.7-151.9l-10.3-22.3l-10.9,23.6l-85.4,150.6h-64.9L393,659.2z"/>
	<path class="st1" d="M834.3,549.2H691.5l-3.4,88.5c81.3,0,164.7,55.4,164.7,147.2c0,118.8-107.3,168.8-213.2,168.8
		c-6.1,0,0,0.7-6.1,0l-26.7-46.6c9.6,1.3,19.8,1.3,31.4,1.3c73.1,0,153.1-35.8,153.1-113.4c0-60.8-51.9-113.4-131.2-113.4
		c-14.4,0-24.6,1.3-24.6,1.3l8.2-186.4H848L834.3,549.2z"/>
	<path class="st1" d="M1157.6,690.3c0,110.1-41,203.3-153.8,203.3c-72.4,0-131.2-58.1-131.2-203.9c0-112.1,43.7-201.9,146.3-201.9
		C1135.7,487.7,1157.6,598.5,1157.6,690.3z M935.4,682.2c0,95.9,15.7,168.1,75.9,168.1c51.9,0,84.7-61.4,84.7-157.3
		c0-94.5-21.9-160.7-81.3-160.7C960,532.3,935.4,589.7,935.4,682.2z"/>
</g>
<path class="st2" d="M785.6,1231"/>
</svg>
